<svg width="102" height="32" viewBox="0 0 102 32" fill="none" xmlns="http://www.w3.org/2000/svg">
<g clip-path="url(#clip0_1039_501)">
<path fill-rule="evenodd" clip-rule="evenodd" d="M0 0V32H33.2986V0H0ZM1.68952 9.06121H15.5243V13.4017H11.9536V11.8503H8.70936V14.6936H11.163V17.4423H8.70936V20.2319H10.1543V23.0334H1.68952V20.2319H2.82116V11.8503H1.68952V9.06121ZM16.1377 9.06121H24.5207C27.2629 9.06121 29.2174 9.37197 30.3954 9.99997C31.5693 10.6318 32.1537 11.6653 32.1537 13.1156C32.1537 13.8689 31.9762 14.5313 31.6085 15.075C31.2445 15.6186 30.6924 16.062 29.9455 16.4223L32.2355 20.2319H33.1214V23.0334H27.5602L24.5207 17.2655H22.7488V20.2319H24.2889V23.0334H16.1377V20.2319H17.3103V11.8503H16.1377V9.06121ZM23.0214 11.8367C22.9064 11.8433 22.8158 11.8503 22.7488 11.8503V14.8163H23.2258C24.1471 14.8163 24.8257 14.687 25.2568 14.4495C25.6877 14.2106 25.8973 13.8438 25.8973 13.3331C25.8973 12.8333 25.6778 12.4561 25.243 12.2041C24.8083 11.9553 24.1509 11.8367 23.2666 11.8367C23.2149 11.8367 23.133 11.8297 23.0214 11.8367ZM34.5253 0V32H67.824V0H34.5253ZM37.6603 9.06121H48.1149V11.8367H46.9563L49.9136 20.2319H50.7451V23.0334H43.2488V20.2319H44.3665L43.7531 18.1628H40.0456L39.3369 20.2319H40.3318V23.0334H35.0024L35.0024 20.2319H35.8202L38.7917 11.8367H37.6603L37.6603 9.06121ZM50.9914 9.06121H57.7376L62.6991 17.1969V11.8367H61.3771V9.06121H67.1159V11.8367H65.9988V23.0334H60.7505L55.3805 14.3532V20.2319H56.7435V23.0334H50.9914V20.2319H52.1085V11.8503H50.9914V9.06121ZM42.0634 12.5443L40.6322 16.5305H43.2765L42.0634 12.5443ZM68.6965 0V32H101.995V0H68.6965ZM69.146 9.06121H77.1745V11.8503H76.0574V20.2319H77.1745V23.0334H69.146V20.2319H70.2644V11.8503H69.146V9.06121ZM78.7834 9.06121H85.5706V11.8367H84.6716L81.8637 14.7081L86.5938 20.2319H86.9203V23.0334H78.9605V20.2319H79.9957L76.3562 15.8232L80.2548 11.8367H78.7834V9.06121ZM87.0287 9.06121H100.647V13.4017H97.1288V11.8503H93.9402V14.6936H96.6794V17.4423H93.9402V20.2319H97.1288V18.4623H100.647V23.0334H87.0287V20.2319H88.1472V11.8503H87.0287V9.06121Z" fill="#595959"/>
</g>
<defs>
<clipPath id="clip0_1039_501">
<rect width="102" height="32" fill="white"/>
</clipPath>
</defs>
</svg>
