<svg width="196" height="32" viewBox="0 0 196 32" fill="none" xmlns="http://www.w3.org/2000/svg">
<path d="M88.1741 23.3769H95.8809L94.7277 25.919L85.2143 25.918V6.53437H88.1767L88.1741 23.3769ZM102.849 6C105.407 6 107.594 7.15056 108.169 7.52583L107.123 9.83868C106.404 9.39565 104.665 8.52654 102.888 8.52654C100.767 8.52654 99.4446 9.43605 99.4446 11.0492C99.4446 15.2136 109.132 12.9294 109.132 20.1989C109.132 23.5021 106.494 25.9192 101.876 25.9192L97.0378 25.916L98.1884 23.3765L101.794 23.3754C104.313 23.3754 106.022 22.432 106.022 20.4176C106.022 15.4805 96.3752 18.0891 96.3752 11.2652C96.3752 8.06502 98.9137 6 102.849 6ZM115.968 12.2825L114.739 25.9185H111.683L113.726 6.53359H116.328L122.145 18.6933L127.757 6.53359H130.364L132.401 25.9185H129.389L128.11 11.9841L122.665 23.779H121.469L115.968 12.2825ZM139.806 21.2907L138.109 25.9177H134.962L142.641 6.36863H144.724L152.308 25.9177H149.035L147.341 21.2907H139.806ZM143.575 11.0139L140.715 18.815H146.433L143.575 11.0139ZM178.032 25.9183H175.185V6.53333H177.584L187.344 19.9492V6.53333H190.19V25.9183H188.122L178.032 12.0516V25.9183ZM167.312 19.9485V6.53397H170.158V25.9176H168.089L157.999 12.0522V25.9176H155.154V6.53397H157.552L167.312 19.9485ZM73.2143 14.5026L80.0759 14.4994L80.0769 17.0077H73.2128L73.2117 23.4094H81.452L81.451 25.919L70.2522 25.918V6.53307L81.1575 6.52994V9.04215L73.2159 9.04111L73.2143 14.5026ZM8.16278 23.6243L11.4422 23.6233C14.0094 23.6233 15.8056 22.474 15.8056 20.3931C15.8056 17.7519 13.5398 16.6639 10.6752 16.6639H9.77771L10.8004 14.3797C12.3123 14.3797 14.9238 14.1335 14.9238 11.3711C14.9238 10.0837 14.0772 8.78068 11.2622 8.78068H8.16278V23.6243ZM5.30469 6.44933H11.5635C16.1083 6.44933 17.8915 8.70094 17.8915 11.2796C17.8915 13.2706 16.6105 14.6023 15.3465 15.2916C16.9053 15.8871 18.8164 17.177 18.8164 20.187C18.8164 23.2295 16.707 25.9997 11.51 25.9997H5.30469V6.44933ZM61.4757 9.06761V25.9182H58.5146V9.06761H53.0762V6.53064H66.914V9.06761H61.4757ZM25.5628 14.5026L32.4256 14.4995V17.0078H25.5628L25.5607 23.4095H33.801L33.8 25.9191L22.6011 25.918V6.53312L33.5065 6.52999V9.0422L25.5649 9.04116L25.5638 14.5021L25.5628 14.5026ZM41.9842 16.1847H42.3612C45.2141 16.1847 47.3104 15.1605 47.3104 12.2222C47.3104 10.3185 45.9276 8.84479 43.5313 8.84479H41.0685L41.0643 25.9182H38.1697V6.53325H44.2329C48.5833 6.53325 50.3573 9.27609 50.3573 12.2887C50.3573 15.1826 48.565 16.9378 46.3774 17.6857L51.881 25.9182H48.2519L41.9842 16.1847Z" fill="#595959"/>
</svg>
