<svg width="67" height="32" viewBox="0 0 67 32" fill="none" xmlns="http://www.w3.org/2000/svg">
<path d="M29.1388 20.6002C29.1388 19.1602 29.747 17.8627 30.7207 16.943V9.0625H25.75V28.7277H30.7207V24.2573C29.747 23.3375 29.1388 22.0401 29.1388 20.6002Z" fill="#595959"/>
<path d="M48.7413 8.53906C47.7837 8.53906 46.8471 8.72344 45.9327 9.09213C45.0173 9.46081 43.9965 10.1165 42.8691 11.0602V9.04428H37.8984V17.13C38.7617 18.0348 39.2927 19.2556 39.2927 20.5999C39.2927 21.9442 38.7617 23.1649 37.8984 24.0697V28.7094H42.8691V20.8201C42.8691 18.7743 42.9414 17.4449 43.087 16.83C43.3651 15.6511 43.8649 14.7274 44.5857 14.0588C45.3064 13.3911 46.1686 13.0572 47.1734 13.0572C47.9483 13.0572 48.5988 13.2585 49.1257 13.6621C49.6527 14.0657 50.0221 14.6517 50.2339 15.422C50.4457 16.1922 50.5521 17.7508 50.5521 20.0976V28.7094H55.4676V15.7139C55.4676 13.4489 54.8915 11.7378 53.7401 10.5809C52.3719 9.21967 50.7057 8.53906 48.7413 8.53906Z" fill="#595959"/>
<path d="M64.5176 1.45312H59.5469V28.7097H64.5176V1.45312Z" fill="#595959"/>
<path d="M16.7795 11.2372C15.8941 10.3453 14.9305 9.67663 13.8876 9.23115C12.8447 8.78574 11.7294 8.5625 10.542 8.5625C7.95927 8.5625 5.765 9.53309 3.9592 11.4724C2.1524 13.4126 1.25 15.9009 1.25 18.9372C1.25 21.865 2.18351 24.3143 4.05055 26.2845C5.91757 28.2546 8.12994 29.2391 10.6885 29.2391C11.8278 29.2391 12.8858 29.0369 13.8615 28.6333C14.8371 28.2297 15.8098 27.57 16.7805 26.6542V28.7329H21.7512V9.06879H16.7805V11.2372H16.7795ZM15.4555 23.1036C14.4276 24.1819 13.1327 24.721 11.5729 24.721C10.0602 24.721 8.78736 24.1729 7.75349 23.0757C6.7196 21.9796 6.20265 20.5815 6.20265 18.8824C6.20265 17.1953 6.71056 15.8132 7.72638 14.7339C8.74222 13.6557 10.019 13.1166 11.5548 13.1166C13.1277 13.1166 14.4276 13.6467 15.4555 14.707C16.4833 15.7673 16.9983 17.1534 16.9983 18.8644C16.9983 20.6123 16.4833 22.0254 15.4555 23.1036Z" fill="#595959"/>
<path d="M28.2586 7.35854C29.1178 7.35854 29.8555 7.04863 30.4729 6.42779C31.0902 5.80697 31.3984 5.05759 31.3984 4.17768C31.3984 3.2858 31.0862 2.52745 30.4628 1.90065C29.8395 1.27384 29.0927 0.960938 28.2214 0.960938C27.3501 0.960938 26.6053 1.26786 25.988 1.88271C25.3707 2.49755 25.0625 3.23797 25.0625 4.10593C25.0625 5.00976 25.3737 5.77807 25.997 6.41086C26.6214 7.04264 27.3742 7.35854 28.2586 7.35854Z" fill="#595959"/>
<path d="M34.2226 23.7431C35.9722 23.7431 37.3906 22.335 37.3906 20.5981C37.3906 18.8612 35.9722 17.4531 34.2226 17.4531C32.4731 17.4531 31.0547 18.8612 31.0547 20.5981C31.0547 22.335 32.4731 23.7431 34.2226 23.7431Z" fill="#595959"/>
</svg>
