<svg width="157" height="32" viewBox="0 0 157 32" fill="none" xmlns="http://www.w3.org/2000/svg">
<g clip-path="url(#clip0_1039_512)">
<path fill-rule="evenodd" clip-rule="evenodd" d="M25.3399 28.7763C24.8725 28.6111 24.4677 28.468 24.4677 28.0684C24.4677 27.7288 24.7365 27.4924 25.1207 27.4924C25.4411 27.4924 25.59 27.589 25.7228 27.6733C25.8175 27.7353 25.9078 27.7928 26.0341 27.7928C26.2204 27.7928 26.3668 27.6439 26.3668 27.4532C26.3668 27.0783 25.7324 26.8262 25.14 26.8262C24.2704 26.8262 23.6864 27.4884 23.6864 28.1082C23.6864 28.9918 24.3729 29.2295 24.9782 29.4378C25.4681 29.6076 25.8917 29.7539 25.8917 30.2026C25.8917 30.712 25.5339 31.0679 25.024 31.0679C24.674 31.0679 24.4387 30.9294 24.2666 30.8282C24.1518 30.7609 24.0603 30.7074 23.9662 30.7074C23.7715 30.7074 23.6406 30.8602 23.6406 31.0862C23.6406 31.508 24.4393 31.7333 25.0163 31.7333C26.1044 31.7333 26.673 30.951 26.673 30.1764C26.673 29.2478 25.9349 28.9866 25.3399 28.7763ZM29.6183 27.5707C29.8432 27.5707 29.9831 27.4355 29.9831 27.2181C29.9831 27.0006 29.8426 26.8654 29.6183 26.8654H27.968C27.7263 26.8654 27.5767 27.0176 27.5767 27.2638V31.2958C27.5767 31.542 27.7263 31.6942 27.9674 31.6942H29.6176C29.8432 31.6942 29.9831 31.559 29.9831 31.3415C29.9831 31.124 29.8426 30.9889 29.6183 30.9889H28.3187V29.6318H29.4932C29.7182 29.6318 29.8581 29.4973 29.8581 29.2798C29.8581 29.0617 29.7175 28.9271 29.4932 28.9271H28.3187V27.5707H29.6183ZM33.0709 27.5707C33.2959 27.5707 33.4358 27.4355 33.4358 27.2181C33.4358 27.0006 33.2959 26.8654 33.0709 26.8654H31.4206C31.1789 26.8654 31.0294 27.0176 31.0294 27.2638V31.2958C31.0294 31.542 31.1789 31.6942 31.42 31.6942H33.0702C33.2959 31.6942 33.4358 31.559 33.4358 31.3415C33.4358 31.124 33.2959 30.9889 33.0709 30.9889H31.772V29.6318H32.9465C33.1715 29.6318 33.3113 29.4973 33.3113 29.2798C33.3113 29.0617 33.1715 28.9271 32.9465 28.9271H31.772V27.5707H33.0709ZM34.8533 26.8262C34.6309 26.8262 34.482 26.9843 34.482 27.2181V31.3415C34.482 31.5753 34.6302 31.7333 34.8533 31.7333C35.0757 31.7333 35.2246 31.576 35.2246 31.3415V27.2181C35.2246 26.9843 35.0757 26.8262 34.8533 26.8262ZM39.766 26.8262C39.5442 26.8262 39.3953 26.9843 39.3953 27.2181V30.3449L37.1875 27.1645C37.0244 26.9255 36.9232 26.8262 36.713 26.8262C36.4848 26.8262 36.3682 26.9693 36.3682 27.2507V31.3415C36.3682 31.5753 36.5177 31.7333 36.7401 31.7333C36.9619 31.7333 37.1108 31.576 37.1108 31.3415V28.214L39.318 31.3957C39.4804 31.6341 39.5823 31.734 39.7924 31.734C40.0213 31.734 40.1379 31.5903 40.1379 31.3089V27.2181C40.1379 26.9843 39.9884 26.8262 39.766 26.8262ZM44.7922 28.8546H43.8265C43.6022 28.8546 43.4617 28.9898 43.4617 29.2073C43.4617 29.4254 43.6022 29.5606 43.8265 29.5606H44.5517V29.75C44.5517 30.2594 44.2114 31.0679 43.2986 31.0679C42.2581 31.0679 41.8881 30.1046 41.8881 29.2798C41.8881 28.3897 42.3161 27.4924 43.2721 27.4924C43.7717 27.4924 44.0367 27.6844 44.25 27.8385C44.3822 27.9332 44.4963 28.0161 44.6291 28.0161C44.6762 28.0174 44.723 28.0091 44.7669 27.9916C44.8107 27.974 44.8506 27.9477 44.8841 27.9141C44.9175 27.8806 44.944 27.8405 44.9618 27.7963C44.9795 27.7521 44.9883 27.7047 44.9875 27.6569C44.9875 27.3304 44.2674 26.8262 43.3108 26.8262C41.7882 26.8262 41.1062 28.0586 41.1062 29.2798C41.1062 30.4618 41.7701 31.7333 43.2264 31.7333C44.5794 31.7333 45.2937 30.9301 45.2937 29.4111C45.2937 29.0212 45.1441 28.8546 44.7922 28.8546ZM50.7524 28.4158C50.7524 28.9206 50.3875 29.287 49.8841 29.287H49.1208V27.5315H49.8589C50.5184 27.5315 50.7524 27.9887 50.7524 28.4158ZM49.9041 26.8654H48.7689C48.5278 26.8654 48.3776 27.0176 48.3776 27.2638V31.3415C48.3776 31.576 48.5271 31.7333 48.7489 31.7333C48.9713 31.7333 49.1202 31.576 49.1202 31.3415V29.9531H49.9234C50.8046 29.9531 51.495 29.2778 51.495 28.4158C51.495 27.5028 50.8407 26.8654 49.9041 26.8654ZM54.2959 31.0679C53.3096 31.0679 52.959 30.1438 52.959 29.2798C52.959 28.4158 53.3096 27.4924 54.2959 27.4924C55.2828 27.4924 55.6342 28.4158 55.6342 29.2798C55.6342 30.1438 55.2828 31.0679 54.2959 31.0679ZM54.2959 26.8262C52.9048 26.8262 52.177 28.0612 52.177 29.2798C52.177 30.4991 52.9048 31.734 54.2959 31.734C55.6877 31.734 56.4155 30.4991 56.4155 29.2798C56.4155 28.0612 55.6877 26.8262 54.2959 26.8262ZM58.8431 28.7763C58.3751 28.6111 57.9703 28.468 57.9703 28.0684C57.9703 27.7288 58.2391 27.4924 58.6233 27.4924C58.943 27.4924 59.0939 27.589 59.2254 27.6733C59.3208 27.7353 59.411 27.7928 59.5374 27.7928C59.5813 27.793 59.6249 27.7844 59.6655 27.7674C59.7061 27.7504 59.7429 27.7253 59.7739 27.6937C59.8048 27.6621 59.8292 27.6245 59.8456 27.5832C59.862 27.5419 59.8701 27.4977 59.8694 27.4532C59.8694 27.0783 59.2357 26.8262 58.6426 26.8262C57.773 26.8262 57.189 27.4884 57.189 28.1082C57.189 28.9918 57.8755 29.2295 58.4808 29.4378C58.9714 29.6076 59.3949 29.7539 59.3949 30.2026C59.3949 30.712 59.0378 31.0679 58.526 31.0679C58.1766 31.0679 57.9413 30.9294 57.7692 30.8282C57.6544 30.7609 57.5629 30.7074 57.4688 30.7074C57.2741 30.7074 57.1432 30.8602 57.1432 31.0862C57.1432 31.508 57.9426 31.7333 58.5195 31.7333C59.607 31.7333 60.1762 30.951 60.1762 30.1764C60.1762 29.2478 59.4368 28.9866 58.8431 28.7763ZM62.5375 28.7763C62.0695 28.6111 61.6653 28.468 61.6653 28.0684C61.6653 27.7288 61.9335 27.4924 62.3177 27.4924C62.6374 27.4924 62.7882 27.589 62.9204 27.6733C63.0145 27.7353 63.1048 27.7928 63.2311 27.7928C63.418 27.7928 63.5631 27.6439 63.5631 27.4532C63.5631 27.0783 62.9301 26.8262 62.3383 26.8262C61.4681 26.8262 60.884 27.4884 60.884 28.1082C60.884 28.9918 61.5693 29.2295 62.1746 29.4378C62.6651 29.6076 63.0886 29.7539 63.0886 30.2026C63.0886 30.712 62.7315 31.0679 62.2203 31.0679C61.8703 31.0679 61.6357 30.9294 61.4635 30.8282C61.3481 30.7609 61.2579 30.7074 61.1631 30.7074C60.9685 30.7074 60.8376 30.8602 60.8376 31.0862C60.8376 31.508 61.6369 31.7333 62.2139 31.7333C63.3014 31.7333 63.8706 30.951 63.8706 30.1764C63.8706 29.2478 63.1318 28.9866 62.5375 28.7763ZM65.1843 26.8262C64.9613 26.8262 64.8117 26.9843 64.8117 27.2181V31.3415C64.8117 31.5753 64.9613 31.7333 65.1843 31.7333C65.4061 31.7333 65.555 31.576 65.555 31.3415V27.2181C65.555 26.9843 65.4061 26.8262 65.1843 26.8262ZM67.4412 28.8357V27.5315H68.0291C68.459 27.5315 68.695 27.7575 68.695 28.167C68.695 28.5732 68.4255 28.8357 68.0097 28.8357H67.4412ZM69.0534 30.2483C69.0534 30.7074 68.6885 31.028 68.1664 31.028H67.4412V29.4764H68.1915C68.7072 29.4764 69.0534 29.7866 69.0534 30.2489V30.2483ZM68.9515 29.061C69.2532 28.8684 69.4376 28.5 69.4376 28.0618C69.4376 27.4819 68.9696 26.8654 68.1006 26.8654H67.0886C66.8475 26.8654 66.6979 27.0176 66.6979 27.2638V31.2958C66.6979 31.542 66.8475 31.6942 67.0886 31.6942H68.1915C69.1372 31.6942 69.796 31.0992 69.796 30.2483C69.796 29.6932 69.4466 29.2197 68.9515 29.061ZM71.1297 26.8262C70.9073 26.8262 70.7578 26.9843 70.7578 27.2181V31.3415C70.7578 31.5753 70.9073 31.7333 71.1297 31.7333C71.3521 31.7333 71.501 31.576 71.501 31.3415V27.2181C71.501 26.9843 71.3521 26.8262 71.1297 26.8262ZM74.5302 30.9889H73.3866V27.2181C73.3866 26.9843 73.2383 26.8262 73.0159 26.8262C72.7935 26.8262 72.6446 26.9843 72.6446 27.2181V31.2958C72.6446 31.542 72.7942 31.6942 73.0353 31.6942H74.5302C74.7545 31.6942 74.8944 31.559 74.8944 31.3415C74.8944 31.124 74.7545 30.9889 74.5302 30.9889ZM76.1095 26.8262C75.8877 26.8262 75.7382 26.9843 75.7382 27.2181V31.3415C75.7382 31.5753 75.8877 31.7333 76.1095 31.7333C76.3319 31.7333 76.4808 31.576 76.4808 31.3415V27.2181C76.4808 26.9843 76.3319 26.8262 76.1095 26.8262ZM80.0643 26.8654H77.7546C77.529 26.8654 77.3897 27 77.3897 27.2181C77.3897 27.4355 77.529 27.5707 77.7546 27.5707H78.5378V31.3415C78.5378 31.576 78.6874 31.7333 78.9091 31.7333C79.1309 31.7333 79.2804 31.576 79.2804 31.3415V27.5714H80.0643C80.2893 27.5714 80.4285 27.4355 80.4285 27.2181C80.4285 27 80.2893 26.8654 80.0643 26.8654ZM81.71 26.8262C81.487 26.8262 81.3387 26.9843 81.3387 27.2181V31.3415C81.3387 31.5753 81.487 31.7333 81.71 31.7333C81.9318 31.7333 82.0807 31.576 82.0807 31.3415V27.2181C82.0807 26.9843 81.9318 26.8262 81.71 26.8262ZM85.2336 27.5707C85.4585 27.5707 85.5978 27.4355 85.5978 27.2181C85.5978 27.0006 85.4585 26.8654 85.2336 26.8654H83.5833C83.3416 26.8654 83.192 27.0176 83.192 27.2638V31.2958C83.192 31.542 83.3416 31.6942 83.5833 31.6942H85.2336C85.4585 31.6942 85.5978 31.559 85.5978 31.3415C85.5978 31.124 85.4585 30.9889 85.2336 30.9889H83.934V29.6318H85.1091C85.3348 29.6318 85.474 29.4973 85.474 29.2798C85.474 29.0617 85.3348 28.9271 85.1091 28.9271H83.934V27.5707H85.2336ZM88.1021 28.7763C87.6354 28.6111 87.2306 28.468 87.2306 28.0684C87.2306 27.7288 87.4988 27.4924 87.883 27.4924C88.2034 27.4924 88.3536 27.589 88.4857 27.6733C88.5805 27.7353 88.6701 27.7928 88.7971 27.7928C88.841 27.793 88.8846 27.7844 88.9252 27.7674C88.9658 27.7504 89.0026 27.7253 89.0335 27.6937C89.0645 27.6621 89.0888 27.6245 89.1052 27.5832C89.1216 27.5419 89.1297 27.4977 89.129 27.4532C89.129 27.0783 88.4947 26.8262 87.903 26.8262C87.0334 26.8262 86.4493 27.4884 86.4493 28.1082C86.4493 28.9918 87.1352 29.2295 87.7405 29.4378C88.2311 29.6076 88.6546 29.7539 88.6546 30.2026C88.6546 30.712 88.2968 31.0679 87.7856 31.0679C87.4356 31.0679 87.2016 30.9294 87.0288 30.8282C86.9141 30.7609 86.8232 30.7074 86.7284 30.7074C86.5344 30.7074 86.4036 30.8602 86.4036 31.0862C86.4036 31.508 87.2016 31.7333 87.7785 31.7333C88.8667 31.7333 89.4359 30.951 89.4359 30.1764C89.4359 29.2478 88.6965 28.9866 88.1021 28.7763ZM92.8969 26.8262C92.6745 26.8262 92.5256 26.9843 92.5256 27.2181V31.3415C92.5256 31.5753 92.6745 31.7333 92.8969 31.7333C93.1193 31.7333 93.2682 31.576 93.2682 31.3415V27.2181C93.2682 26.9843 93.1193 26.8262 92.8969 26.8262ZM97.8102 26.8262C97.5885 26.8262 97.4383 26.9843 97.4383 27.2181V30.3443L95.2305 27.1645C95.0686 26.9255 94.9668 26.8262 94.7566 26.8262C94.5278 26.8262 94.4111 26.9693 94.4111 27.2507V31.3415C94.4111 31.5753 94.5613 31.7333 94.7831 31.7333C95.0048 31.7333 95.1544 31.576 95.1544 31.3415V28.2133L97.3622 31.3957C97.5247 31.6341 97.6265 31.734 97.8367 31.734C98.0655 31.734 98.1816 31.5903 98.1816 31.3089V27.2181C98.1816 26.9843 98.032 26.8262 97.8102 26.8262ZM103.888 28.4158C103.888 28.9206 103.522 29.287 103.019 29.287H102.256V27.5315H102.993C103.653 27.5315 103.888 27.9887 103.888 28.4158ZM103.038 26.8654H101.904C101.663 26.8654 101.512 27.0176 101.512 27.2638V31.3415C101.512 31.576 101.663 31.7333 101.884 31.7333C102.106 31.7333 102.256 31.576 102.256 31.3415V29.9531H103.058C103.939 29.9531 104.63 29.2778 104.63 28.4158C104.63 27.5028 103.976 26.8654 103.038 26.8654ZM107.398 31.0679C106.412 31.0679 106.06 30.1438 106.06 29.2798C106.06 28.4158 106.412 27.4924 107.398 27.4924C108.385 27.4924 108.735 28.4158 108.735 29.2798C108.735 30.1438 108.385 31.0679 107.398 31.0679ZM107.398 26.8262C106.006 26.8262 105.278 28.0612 105.278 29.2798C105.278 30.4991 106.006 31.734 107.398 31.734C108.79 31.734 109.519 30.4991 109.519 29.2798C109.519 28.0612 108.79 26.8262 107.398 26.8262ZM112.647 26.8654H110.338C110.112 26.8654 109.972 27 109.972 27.2181C109.972 27.4355 110.112 27.5707 110.338 27.5707H111.121V31.3415C111.121 31.576 111.271 31.7333 111.492 31.7333C111.714 31.7333 111.864 31.576 111.864 31.3415V27.5714H112.647C112.873 27.5714 113.012 27.4355 113.012 27.2181C113.012 27 112.873 26.8654 112.647 26.8654ZM116.111 30.0132H114.549L115.33 27.8117L116.111 30.0125V30.0132ZM115.82 27.2351C115.724 26.964 115.559 26.8262 115.33 26.8262C115.098 26.8262 114.937 26.9601 114.84 27.2344L113.397 31.092L113.386 31.1286C113.35 31.2292 113.315 31.3343 113.315 31.4075C113.315 31.5962 113.466 31.734 113.673 31.734C113.846 31.734 113.967 31.6426 114.034 31.4623L114.313 30.6806H116.347L116.628 31.4636C116.693 31.6432 116.815 31.734 116.988 31.734C117.194 31.734 117.346 31.5962 117.346 31.4075C117.346 31.3343 117.311 31.2292 117.275 31.1286L115.82 27.2351ZM120.323 26.8654H118.014C117.788 26.8654 117.648 27 117.648 27.2181C117.648 27.4355 117.788 27.5707 118.014 27.5707H118.797V31.3415C118.797 31.576 118.946 31.7333 119.168 31.7333C119.39 31.7333 119.539 31.576 119.539 31.3415V27.5714H120.323C120.548 27.5714 120.687 27.4355 120.687 27.2181C120.687 27 120.548 26.8654 120.323 26.8654ZM123.214 31.0679C122.228 31.0679 121.877 30.1438 121.877 29.2798C121.877 28.4158 122.228 27.4924 123.214 27.4924C124.2 27.4924 124.552 28.4158 124.552 29.2798C124.552 30.1438 124.2 31.0679 123.214 31.0679ZM123.214 26.8262C121.823 26.8262 121.094 28.0612 121.094 29.2798C121.094 30.4991 121.823 31.734 123.214 31.734C124.607 31.734 125.334 30.4991 125.334 29.2798C125.334 28.0612 124.607 26.8262 123.214 26.8262ZM128.313 27.5707C128.537 27.5707 128.676 27.4355 128.676 27.2181C128.676 27.0006 128.537 26.8654 128.313 26.8654H126.662C126.42 26.8654 126.271 27.0176 126.271 27.2638V31.2958C126.271 31.542 126.42 31.6942 126.662 31.6942H128.313C128.537 31.6942 128.676 31.559 128.676 31.3415C128.676 31.124 128.537 30.9889 128.313 30.9889H127.013V29.6318H128.188C128.413 29.6318 128.553 29.4973 128.553 29.2798C128.553 29.0617 128.413 28.9271 128.188 28.9271H127.013V27.5707H128.313ZM131.283 28.7632C130.817 28.5973 130.412 28.4537 130.412 28.052C130.412 27.7118 130.68 27.4734 131.064 27.4734C131.384 27.4734 131.533 27.5707 131.665 27.6563C131.761 27.7183 131.85 27.7758 131.977 27.7758C132.021 27.7759 132.064 27.7671 132.105 27.7499C132.146 27.7328 132.182 27.7076 132.213 27.6758C132.244 27.6441 132.268 27.6064 132.285 27.5651C132.301 27.5237 132.309 27.4794 132.308 27.4349C132.308 27.0581 131.675 26.8047 131.083 26.8047C130.215 26.8047 129.632 27.4702 129.632 28.0919C129.632 28.98 130.317 29.2177 130.922 29.4274C131.411 29.5985 131.834 29.7448 131.834 30.1954C131.834 30.7061 131.477 31.064 130.967 31.064C130.618 31.064 130.383 30.9249 130.211 30.8236C130.096 30.7557 130.006 30.7022 129.911 30.7022C129.717 30.7022 129.586 30.8556 129.586 31.0822C129.586 31.5067 130.384 31.732 130.96 31.732C132.046 31.732 132.614 30.9464 132.614 30.1693C132.614 29.236 131.877 28.9742 131.283 28.7632Z" fill="#595959"/>
<path fill-rule="evenodd" clip-rule="evenodd" d="M115.332 18.3838C113.948 18.3838 115.332 11.3222 113.564 11.3222C112.948 11.3222 111.447 11.639 110.717 12.3306C109.965 13.047 109.026 14.504 108.18 15.5116C109.103 12.0204 109.717 9.77122 108.41 9.77122C107.795 9.77122 106.641 10.0814 105.949 10.4693C105.285 10.852 103.92 11.7356 102.844 12.3567C102.37 10.9676 101.327 10.6241 100.412 10.6241C100.412 9.84828 100.026 9.38265 99.3347 9.38265C97.6928 9.38265 95.7776 11.4274 94.81 13.8659C93.6452 15.9466 92.2554 17.7627 91.6436 17.7627C90.8224 17.7627 92.2296 12.5702 93.4402 8.40436C94.2834 8.47555 95.0698 8.5291 95.6429 8.5291C97.95 8.5291 98.5643 6.74428 98.5643 5.65824C98.5643 4.72763 97.6425 6.04616 94.7204 6.04616H94.1312C94.4329 5.01955 94.6766 4.19081 94.7971 3.71865C94.9519 3.25302 94.7971 3.01987 94.4123 3.01987C93.3358 3.01987 91.5663 3.95049 91.1834 5.19261C91.1079 5.44469 91.0209 5.73465 90.9287 6.04616H89.5666C87.8745 6.04616 87.0287 6.97743 87.0287 7.90869C87.0287 8.5291 87.4896 8.06412 88.9523 8.06412C89.3049 8.06412 89.7781 8.09024 90.3183 8.13204C90.0076 9.19287 89.7057 10.2563 89.4126 11.3222C88.9916 12.6943 87.4535 14.9879 85.6376 16.8164C85.6402 16.7446 85.6434 16.6728 85.6434 16.599C85.5674 14.7364 85.1832 9.30494 84.1066 9.30494C83.3376 9.30494 81.4147 10.3916 81.1078 11.1675C80.1074 13.7275 76.3389 19.0042 73.955 19.0042C73.3652 19.0042 73.1376 18.502 73.0635 17.7438C75.39 17.5061 78.1844 14.9089 78.1844 12.0981C78.1844 10.7018 77.4154 9.45971 75.5698 9.45971C72.1855 9.45971 69.5709 13.96 69.5709 17.608C69.5709 20.0132 70.8782 21.5642 73.2621 21.5642C78.1077 21.5642 80.9531 15.8225 82.1063 13.96C83.491 19.9355 79.1069 19.0042 79.1069 19.7794C79.1069 20.6336 80.03 21.5642 81.2612 21.5642C81.3077 21.5642 81.3612 21.5603 81.4172 21.5564L81.4147 21.5642C83.4137 21.5642 86.2597 19.7794 88.26 16.7544C87.7978 19.7794 87.9525 21.5642 89.8754 21.5642C91.4638 21.5642 93.1881 20.0648 94.3227 18.3165C94.7166 20.1947 95.9156 21.5642 97.7192 21.5642C100.838 21.5642 102.861 17.8398 103.083 14.7462C103.884 14.4857 104.884 14.0932 105.564 13.7275C104.718 18.3838 103.411 21.5642 104.795 21.5642C105.334 21.5642 106.565 21.0992 107.258 20.4004C108.103 19.5476 110.717 15.2021 111.18 15.2021C111.949 15.2021 110.41 21.5642 113.332 21.5642C115.256 21.5642 117.101 19.3144 117.101 18.0729C117.101 17.064 115.947 18.3838 115.332 18.3838ZM75.4925 12.0204C76.8546 12.0204 75.2391 15.6984 73.1357 15.8173C73.5225 13.6099 74.9007 12.0204 75.4925 12.0204ZM98.5643 18.6947C96.4119 18.6947 97.796 13.5727 99.258 12.486C98.8738 13.8835 99.5661 15.0473 100.796 15.0473C100.796 16.2104 99.7202 18.6947 98.5643 18.6947ZM49.8047 9.76992C47.8063 9.76992 46.343 11.5547 47.3435 11.5547C49.1897 11.5547 48.266 18.2284 46.267 18.2284C43.9592 18.2284 47.4202 6.27865 48.7275 3.09694C49.1123 2.16567 48.9583 1.77775 48.1892 1.77775C47.2668 1.77775 45.6507 2.47653 45.1124 3.64028C44.4775 5.34934 43.3687 8.82363 42.7383 12.1908C42.7357 12.1856 42.7325 12.1797 42.7286 12.1751C42.267 14.2695 40.1901 17.6073 39.3443 17.6073C38.5759 17.6073 40.2681 10.8566 38.5759 10.8566C37.8836 10.8566 36.8844 11.7095 36.4989 12.0191C35.96 12.4853 34.9602 14.0377 33.8076 15.9766C34.1918 13.4166 34.5766 9.76992 33.4995 9.76992C32.8845 9.76992 31.9614 10.3133 31.3458 10.7012C30.1145 11.4764 28.423 14.7358 27.4225 15.9773C27.8087 12.2529 28.0388 10.0024 27.1924 10.0024C26.424 10.0024 24.9626 10.8566 24.5784 11.6318C23.1164 14.4256 20.886 17.8391 20.1176 17.8391C19.3479 17.8391 20.5779 15.3562 20.5779 13.8822C20.5779 13.1058 18.6556 11.7872 18.2721 12.5631C17.3483 14.581 15.8876 18.0723 14.4262 18.0723C12.8875 18.0723 15.3493 11.4764 18.0413 11.4764C19.1178 11.4764 19.8095 12.0968 19.8095 11.6318C19.8095 10.0808 18.6556 9.22722 17.1942 9.22722C13.1182 9.22722 10.4269 14.2695 10.4269 18.3061C10.4269 20.3998 11.5035 21.5635 13.1182 21.5635C14.8104 21.5635 16.5025 19.4685 17.1175 18.0723C16.5799 20.6323 17.5011 21.5635 18.8103 21.5635C20.886 21.5635 22.5782 19.2367 24.2703 16.5206C23.6553 20.5552 23.3472 21.5635 24.3464 21.5635C24.9626 21.5635 25.9625 21.3304 26.424 20.8648C27.8087 19.4685 29.6536 16.8308 30.5774 15.1237C29.5769 19.8571 29.1927 21.5629 30.1932 21.5629C30.7308 21.5629 32.0381 21.3304 32.6537 20.71C34.0377 19.3138 35.1916 17.6067 36.1147 16.132C35.4224 20.4775 36.0374 21.5635 37.4987 21.5635C38.9124 21.5635 41.1319 19.9348 42.3122 17.6367C42.5655 20.6858 43.8851 21.5635 45.2671 21.5635C48.0358 21.5635 52.1885 18.3054 52.1885 12.3299C52.1885 11.0884 51.6496 9.76992 49.8047 9.76992ZM8.50465 17.5283C7.6576 17.5283 5.96675 17.6067 4.96628 17.6067C3.96518 17.6067 4.1966 16.3645 4.50408 15.1237C5.58061 10.2362 7.35076 4.3384 7.88838 1.46755C8.04309 0.691711 7.81103 0.459221 7.04199 0.459221C6.27294 0.459221 4.1966 1.39049 3.96518 2.16632C2.27432 8.14118 1.35121 13.1064 0.658233 17.7627C0.350745 20.0896 0.4281 21.5635 2.42709 21.5635C3.88846 21.5635 9.81002 20.4011 9.81002 19.0813C9.81002 18.3067 9.11833 17.5296 8.504 17.5296L8.50465 17.5283ZM72.0315 1.62428C71.1077 1.62428 69.3395 2.94347 69.1854 4.10722C68.6478 7.59783 65.571 16.5219 64.6479 16.5219C64.2643 16.5219 64.1096 16.2111 64.1096 14.504C64.1096 9.69351 65.8791 4.33971 65.8791 3.40845C65.8791 2.94281 65.571 2.78804 65.1094 2.78804C63.8795 2.78804 62.3414 3.79702 62.11 4.57285C61.6491 6.04747 61.5717 6.74494 61.1869 8.91767C60.804 10.2369 58.6496 16.5996 57.8026 16.5996C56.9568 16.5996 57.0342 13.5733 57.0342 10.3923C57.0342 7.59783 57.4177 4.33971 58.0346 1.15865C58.1114 0.615302 57.9573 0.382812 57.3423 0.382812C55.9564 0.382812 54.2655 1.15865 54.0341 2.16698C53.7266 3.40845 53.4198 5.96975 53.4198 8.91767C53.4198 15.7461 54.1881 21.5649 56.4186 21.5649C58.1114 21.5649 60.111 18.5392 60.804 16.2111C60.804 20.8667 61.8031 21.5649 62.9557 21.5649C66.1866 21.5649 72.5704 8.2189 72.5704 2.24534C72.5704 1.85677 72.4169 1.62428 72.0315 1.62428ZM116.87 11.6553H116.399V12.1673H116.87C117.033 12.1673 117.155 12.0902 117.155 11.912C117.155 11.7428 117.033 11.6553 116.87 11.6553ZM117.083 12.4324L117.449 13.1593H117.092L116.744 12.4644H116.399V13.1593H116.096V11.3588H116.88C117.196 11.3588 117.464 11.5273 117.464 11.9035C117.464 12.1862 117.314 12.3645 117.083 12.4324ZM116.716 10.9062C115.936 10.9062 115.343 11.5044 115.343 12.2907C115.343 13.0777 115.936 13.6759 116.716 13.6759C117.495 13.6759 118.089 13.0777 118.089 12.2914C118.089 11.5044 117.495 10.9062 116.716 10.9062ZM116.716 13.9417C115.788 13.9417 115.08 13.2285 115.08 12.2914C115.08 11.3542 115.788 10.6404 116.716 10.6404C117.645 10.6404 118.351 11.3542 118.351 12.2907C118.351 13.2285 117.645 13.9417 116.716 13.9417Z" fill="#595959"/>
<path fill-rule="evenodd" clip-rule="evenodd" d="M155.852 20.0986C155.84 20.0281 155.83 19.8544 155.82 19.7296C155.785 19.3639 155.762 18.9786 155.712 18.6116C155.688 18.5345 155.688 18.43 155.677 18.3373C155.604 17.9562 155.528 17.5759 155.447 17.1964C155.405 17.0792 155.375 16.958 155.356 16.8346C155.242 16.3762 155.079 16.0065 154.901 15.6219C154.885 15.5853 154.847 15.4743 154.831 15.4403C154.803 15.3916 154.772 15.3445 154.739 15.2993C154.598 15.0408 154.445 14.7896 154.28 14.5463C154.234 14.4784 154.192 14.4444 154.145 14.385C154.128 14.3608 154.058 14.2681 154.051 14.2583L154.023 14.2224C153.991 14.1819 153.979 14.1584 153.946 14.0957C153.838 14.0082 153.818 13.9847 153.753 13.9252C153.669 13.8723 153.61 13.7933 153.53 13.7345C153.404 13.6464 153.267 13.5491 153.138 13.4668C153.115 13.4531 153.093 13.4341 153.072 13.4211C153.046 13.4067 152.936 13.342 152.901 13.3244C152.837 13.2918 152.798 13.2702 152.741 13.2408C152.69 13.2154 152.658 13.2023 152.607 13.1755C152.581 13.1638 152.563 13.1429 152.54 13.1311C152.473 13.0926 152.408 13.0645 152.341 13.0331C152.327 13.0266 152.32 13.009 152.304 13.0011C152.185 12.9398 152.057 12.9267 151.901 12.8823C151.289 12.704 150.496 12.6354 149.779 12.7086C149.455 12.7687 149.124 12.8209 148.812 12.8921C148.696 12.9378 148.471 13.0423 148.471 13.0423C148.471 13.0423 148.352 13.0985 148.304 13.1265C148.125 13.1945 147.967 13.278 147.798 13.3538C147.627 13.4302 147.471 13.5131 147.296 13.6007C147.172 13.6908 147.049 13.7802 146.928 13.873C146.808 13.9644 146.704 14.0526 146.568 14.1512C146.542 14.1754 146.341 14.383 146.229 14.4823C146.209 14.5162 146.08 14.639 146.053 14.6749C145.995 14.7618 145.923 14.8356 145.857 14.9153C145.657 15.1562 145.489 15.4162 145.314 15.6761C145.068 16.0777 144.892 16.5447 144.724 17.0122C144.591 17.3761 144.495 17.7529 144.439 18.1368C144.38 18.5385 144.355 18.9479 144.293 19.3535C144.284 19.4122 144.259 19.4717 144.255 19.5298C144.242 19.6911 144.257 19.8518 144.262 20.0091C144.264 20.1032 144.26 20.1959 144.269 20.2573C144.253 20.3527 144.294 20.7863 144.301 21.0658C144.313 21.2029 144.331 21.2774 144.356 21.361C144.863 21.361 145.404 21.3564 145.899 21.3865C146.399 21.4171 146.864 21.3714 147.35 21.3995C147.532 21.4119 147.736 21.3917 147.936 21.3878C148.34 21.3767 148.719 21.3642 149.095 21.3669C149.3 21.3682 149.514 21.329 149.69 21.3538C149.725 21.3584 149.729 21.3505 149.755 21.3525C150.374 21.3878 150.922 21.31 151.492 21.3512C151.534 21.3477 151.576 21.3468 151.618 21.3486C151.768 21.3616 151.935 21.3381 152.09 21.3453C152.327 21.3571 152.765 21.3349 153.033 21.3636C153.275 21.3897 153.535 21.3225 153.788 21.3531C153.976 21.3767 154.214 21.3525 154.419 21.3656C154.889 21.3976 155.442 21.3656 155.891 21.3656C155.975 20.9705 155.85 20.5407 155.852 20.0986Z" fill="#595959"/>
<path fill-rule="evenodd" clip-rule="evenodd" d="M143.478 20.7419C143.471 20.6139 143.451 20.3631 143.456 20.162C143.435 20.0562 143.442 19.8518 143.436 19.6924C143.407 19.2647 143.357 18.8983 143.306 18.4888C143.215 18.2054 143.179 17.8991 143.099 17.6053C143.05 17.4244 142.989 17.2559 142.963 17.0665C142.894 16.8792 142.837 16.6877 142.792 16.4931C142.679 16.241 142.598 15.9563 142.498 15.6918C142.354 15.4724 142.257 15.2869 142.106 15.0733C142.099 15.0492 142.061 15.0048 142.055 14.9728C141.957 14.8663 141.89 14.7298 141.798 14.6208C141.739 14.4758 141.626 14.385 141.546 14.2616C141.425 14.1767 141.349 14.0461 141.232 13.9573C141.018 13.7532 140.785 13.5706 140.537 13.4119C140.425 13.3186 140.29 13.2448 140.159 13.1703C139.928 13.0573 139.749 12.9509 139.42 12.8379C139.394 12.8281 139.339 12.7987 139.314 12.7896C139.259 12.7674 139.196 12.755 139.136 12.7341C139.079 12.7158 139.027 12.6838 138.971 12.6662C138.829 12.6204 138.654 12.5675 138.527 12.5277C138.422 12.4954 138.314 12.472 138.205 12.4578C138.122 12.4467 138.029 12.4591 137.934 12.4448C137.841 12.431 137.707 12.4408 137.597 12.4232C137.483 12.4065 137.368 12.4021 137.253 12.4102C136.927 12.4408 136.614 12.4657 136.309 12.5277C136.029 12.6126 135.733 12.6844 135.471 12.7896C135.27 12.9097 135.076 13.0404 134.878 13.1631C134.678 13.2866 134.474 13.3904 134.285 13.5432C133.991 13.8717 133.714 14.2152 133.455 14.5724C133.432 14.6044 133.369 14.6802 133.361 14.69C133.355 14.6991 133.332 14.7435 133.326 14.752C133.12 15.0648 132.913 15.3835 132.717 15.6983C132.661 15.7897 132.631 15.8812 132.589 15.9817C132.469 16.2658 132.322 16.5564 132.245 16.8725C132.22 16.9803 132.194 17.0906 132.166 17.2043C132.131 17.3675 132.065 17.5393 132.025 17.681C132.005 17.7398 132.009 17.8012 131.995 17.8613C131.988 17.8906 131.965 17.9207 131.96 17.9514C131.951 17.9906 131.954 18.0278 131.945 18.0676C131.938 18.1022 131.916 18.1329 131.909 18.1643C131.899 18.2054 131.903 18.2459 131.894 18.2884C131.882 18.3622 131.851 18.4353 131.837 18.5104C131.81 18.6658 131.782 18.8258 131.759 18.9871C131.729 19.1883 131.702 19.3587 131.702 19.5814C131.702 19.6533 131.688 19.7218 131.688 19.7884C131.689 19.8831 131.704 19.9857 131.708 20.0856C131.726 20.4859 131.752 20.851 131.759 21.2611C132.098 21.3029 132.4 21.2611 132.768 21.2872L132.839 21.2944C133.034 21.3075 133.234 21.3075 133.418 21.3075C133.642 21.3075 133.878 21.2957 134.091 21.314C134.401 21.3427 134.724 21.331 135.051 21.3493C135.388 21.3688 135.74 21.361 136.066 21.3636C136.182 21.3643 136.306 21.3473 136.41 21.3636C136.449 21.3702 136.475 21.3636 136.503 21.3636C136.514 21.3636 136.534 21.3767 136.546 21.3767C137.146 21.3884 137.637 21.3858 138.234 21.425C138.428 21.4381 138.626 21.4035 138.813 21.4335C138.99 21.4596 139.239 21.4531 139.437 21.4531C139.489 21.4531 139.546 21.4616 139.601 21.4531C139.726 21.4799 139.91 21.4642 140.072 21.4681C140.859 21.4812 141.744 21.4995 142.555 21.4733C142.691 21.4701 142.822 21.4603 142.949 21.4681C143.099 21.4368 143.305 21.4616 143.478 21.4531C143.469 21.2056 143.49 20.9548 143.478 20.7426V20.7419Z" fill="#595959"/>
<path fill-rule="evenodd" clip-rule="evenodd" d="M130.657 20.1675C130.644 20.0457 130.634 19.9235 130.627 19.8012C130.597 19.5896 130.572 19.2461 130.537 18.9894C130.479 18.704 130.425 18.418 130.352 18.1483C130.321 17.9223 130.245 17.7434 130.2 17.5298C130.118 17.3156 130.035 17.1021 129.96 16.8781C129.856 16.6547 129.747 16.4353 129.645 16.2074C129.581 16.1156 129.528 16.017 129.485 15.9135C129.419 15.8103 129.353 15.7065 129.304 15.5856C129.168 15.3956 129.064 15.1938 128.932 15.0064C128.803 14.8203 128.627 14.6648 128.503 14.4774C128.407 14.3762 128.142 14.1489 128.039 14.0647C127.827 13.8908 127.598 13.7379 127.356 13.6082C127.23 13.5403 127.107 13.4926 126.97 13.4168C126.799 13.3382 126.624 13.2704 126.445 13.2137C126.268 13.1589 126.074 13.121 125.901 13.0798C125.667 13.0237 125.425 12.9597 125.191 12.9283C125.139 12.9218 125.084 12.9296 125.032 12.9251C124.644 12.8911 124.234 12.8552 123.797 12.8878C123.458 12.9532 123.163 13.04 122.862 13.1223C122.476 13.2973 122.209 13.3731 121.767 13.7048C121.323 14.0366 121.335 14.0477 121.168 14.194C121.108 14.2449 120.968 14.4343 120.935 14.4696C120.901 14.5074 120.841 14.5427 120.807 14.5806C120.676 14.7297 120.552 14.8848 120.435 15.0456C120.368 15.1416 120.288 15.248 120.229 15.3394C120.196 15.3891 120.133 15.4407 120.085 15.5047C119.924 15.7254 119.775 15.9736 119.645 16.2165C119.496 16.4941 119.403 16.7422 119.371 16.8154C119.232 17.1145 119.095 17.4325 119.03 17.7897C118.929 18.0751 118.886 18.3977 118.828 18.7203C118.771 19.0716 118.729 19.4252 118.703 19.7803C118.678 20.0532 118.667 20.3243 118.638 20.5966C118.611 20.8519 118.556 21.1105 118.588 21.3724C119.82 21.3417 121.142 21.3261 122.44 21.298C122.811 21.2914 123.187 21.2601 123.553 21.2751C124.03 21.2967 124.5 21.2621 124.963 21.2882C125.179 21.2993 125.403 21.2536 125.617 21.2803C125.754 21.298 125.92 21.2849 126.078 21.2849C126.597 21.2849 127.081 21.2869 127.554 21.3025C127.568 21.3038 127.582 21.3019 127.597 21.3019C127.779 21.3045 127.934 21.3019 128.097 21.3058C128.186 21.3071 128.298 21.3156 128.324 21.3149C128.434 21.3052 128.581 21.3195 128.705 21.3267C128.935 21.3417 129.15 21.3195 129.381 21.3332C129.826 21.3626 130.224 21.311 130.659 21.3345C130.682 20.9473 130.677 20.5927 130.657 20.1675Z" fill="#595959"/>
</g>
<defs>
<clipPath id="clip0_1039_512">
<rect width="156" height="32" fill="white" transform="translate(0.25)"/>
</clipPath>
</defs>
</svg>
