<svg width="166" height="32" viewBox="0 0 166 32" fill="none" xmlns="http://www.w3.org/2000/svg">
<g clip-path="url(#clip0_1039_518)">
<path fill-rule="evenodd" clip-rule="evenodd" d="M113.406 19.4056C112.901 22.998 111.286 24.8539 109.079 24.8539C107.672 24.8539 106.867 23.8691 107.106 22.3382L107.882 17.486C108.182 15.6889 109.256 14.2813 111.166 14.2813C113.288 14.2803 113.918 15.7173 113.406 19.4056ZM106.121 26.5345C106.418 26.5345 107.137 27.7904 109.464 27.7904C114.42 27.7904 117.26 24.198 118.036 19.5563C119.022 13.831 116.244 11.2253 112.75 11.2253C111.109 11.2253 110.004 11.3761 109.106 11.8567L110.452 3.95051L106.21 4.00924L102.12 27.5535L105.226 27.4615C105.226 27.4615 105.674 26.5345 106.152 26.5345H106.121ZM149.009 16.5013C149.634 12.9354 148.322 11.1989 144.468 11.1989C141.603 11.1989 140.555 12.3353 139.48 13.416L139.63 11.5278L135.717 11.5885L135.328 14.524L133.119 27.5545L137.36 27.4625L138.704 19.0757C139.181 16.1695 141.184 13.9514 143.064 13.9514C145.155 13.9514 145.036 15.1495 144.709 16.9761L142.887 27.5545L147.127 27.4625L149.009 16.5013ZM166 11.2576L161.553 11.1979L155.517 17.3666H155.429L157.696 3.97597L153.636 4.00826L149.545 27.5525L153.667 27.4605L154.085 25.1553L154.919 20.0007C157.101 20.0007 158.325 20.2415 159.281 24.5837L159.936 27.5525L164.149 27.4919C164.149 27.4919 163.104 23.0567 162.416 21.3202C161.702 19.4946 160.773 18.412 159.102 18.0851L166 11.2576ZM48.9301 17.0691C51.9448 16.4093 53.3805 13.8907 53.7982 12.304C54.8727 7.93345 52.9305 4.51629 47.3763 4.57698L40.9828 4.69836L37.0106 27.5183L41.2804 27.4919L42.924 18.2956C43.7906 18.2956 44.1488 18.2633 44.5665 18.3239C45.0135 18.3543 45.643 18.4443 46.0305 18.7713C46.7166 19.431 47.3148 20.8415 47.7618 23.597L48.4206 27.5183L52.7793 27.4919C52.2708 25.125 51.9438 22.9089 51.5261 21.1098C51.0762 19.2245 50.4516 17.906 48.8988 17.0681L48.9301 17.0691ZM49.4961 11.6746C49.1379 13.7126 47.7023 15.0027 45.7631 15.0027H43.3124L44.5675 7.8434L46.8103 7.75334C49.0189 7.69265 49.826 9.63763 49.4961 11.6746ZM68.4025 15.87C68.9998 12.3931 67.1474 11.1979 63.4144 11.1979C59.2636 11.1979 56.7241 13.415 56.7241 13.415L58.1598 15.8396C58.1598 15.8396 60.099 14.0718 63.1147 14.0718C64.1024 14.0718 64.3728 14.7306 64.2225 15.8396L63.8945 17.906C57.8914 17.7572 54.8142 19.0434 54.1261 22.997C53.5591 26.2321 56.0068 27.6671 58.7239 27.6671C60.1283 27.6671 61.2341 27.577 62.6063 26.3828C62.8766 27.163 63.3236 27.5183 63.8633 27.6103C64.7261 27.7904 66.2505 27.6406 66.7004 27.3117C66.6692 26.8321 66.7004 25.6007 67.2089 22.7268L68.4025 15.87ZM63.4729 20.0957L63.0552 22.4322C62.9437 23.2006 62.5646 23.9047 61.9852 24.4198C61.4057 24.9349 60.6632 25.2277 59.8892 25.2464C58.3354 25.2464 57.7108 24.3478 57.9782 23.1184C58.3354 21.0804 59.4705 20.543 60.4572 20.2719C60.9647 20.1221 62.6063 20.0957 63.4729 20.0957ZM76.3157 27.7904C81.2745 27.7904 84.1126 24.198 84.8885 19.5563C85.8743 13.831 83.0938 11.2253 79.6008 11.2253C77.9572 11.2253 76.8524 11.3761 75.9263 11.8567L77.2711 3.95051L73.0598 4.00924L68.9696 27.5535L72.077 27.4615C72.077 27.4615 72.5231 26.5345 72.973 26.5345C73.2687 26.5345 73.986 27.7904 76.3157 27.7904ZM78.047 14.2803C80.1678 14.2803 80.7953 15.7173 80.2859 19.4046C79.7813 22.997 78.1661 24.8529 75.9253 24.8529C74.5228 24.8529 73.7157 23.8682 73.986 22.3372L74.7629 17.4851C75.0625 15.6879 76.1371 14.2803 78.0168 14.2803H78.047ZM92.0863 27.8785C88.1424 27.6681 85.8128 24.7335 86.1105 20.9042C86.4686 15.4217 89.6327 10.8083 95.9365 11.1382C100.925 11.4054 102.179 14.6719 102 18.2642C101.701 23.9269 98.3862 28.2397 92.1146 27.9108L92.0863 27.8785ZM92.6211 24.9459C95.8155 25.126 97.2492 21.3496 97.4609 18.1478C97.579 16.471 97.8787 14.2206 95.4553 14.1305C92.3215 13.9514 90.7112 17.9647 90.5033 21.0236C90.353 23.2417 90.919 24.8852 92.5909 24.9772L92.6211 24.9459ZM132.611 15.8112C133.208 12.3353 131.355 11.1382 127.651 11.1382C123.502 11.1382 120.962 13.3543 120.962 13.3543L122.394 15.7819C122.394 15.7819 124.34 14.0121 127.354 14.0121C128.34 14.0121 128.608 14.6709 128.431 15.7819L128.101 17.8443C122.097 17.6936 119.022 18.9837 118.336 22.9392C117.768 26.1704 120.218 27.6093 122.936 27.6093C124.34 27.6093 125.444 27.5173 126.817 26.3231C127.087 27.0993 127.533 27.4605 128.071 27.5525C128.939 27.7287 130.461 27.577 130.909 27.2501C130.881 26.7704 130.909 25.541 131.415 22.6671L132.611 15.8112ZM124.697 20.2141C125.203 20.0653 126.847 20.0301 127.685 20.0301L127.267 22.3705C126.967 24.2881 125.327 25.1847 124.131 25.1847C122.577 25.1847 121.951 24.2881 122.189 23.0567C122.547 21.0226 123.681 20.4813 124.667 20.2141H124.697ZM0.0078125 23.4835C0.0078125 19.5524 5.14237 16.3545 11.5252 16.2742C11.5252 16.2742 11.5057 15.9639 11.4861 15.7897C11.4676 15.6135 11.3319 15.4021 11.3319 15.0526C11.3319 14.7042 11.6218 13.1546 11.6218 13.1546C11.6218 13.1546 11.3905 12.9207 11.2548 12.4381C11.1192 11.9526 11.0801 11.5826 11.0801 11.5826C11.0801 11.5826 10.8488 10.4755 10.8488 10.0908C10.8488 9.90681 10.9191 9.27252 10.9064 8.66955C10.8908 7.90311 10.8 7.33244 10.8 7.33244C10.438 8.21242 10.11 8.6255 9.85629 8.93384C9.71672 9.19519 9.63084 9.52212 9.55276 9.79131C9.47371 10.0624 9.00719 10.8436 9.00719 11.195C9.00719 11.6335 9.26095 11.9869 9.26095 12.1239C9.26095 12.26 9.14676 12.3951 9.14676 12.3951C9.2141 12.6182 9.26778 12.7641 8.92814 12.7641C8.68415 12.7641 8.54654 12.5145 8.54654 12.0877C8.54654 11.8557 8.58558 11.6452 8.60607 11.4524C8.62169 11.2889 8.61583 11.1411 8.66463 10.9669C8.8891 10.1672 8.96815 9.59847 9.10674 8.73121C9.18384 8.25255 9.45907 8.05483 9.58985 7.58792C9.79773 6.84693 10.1442 5.03312 10.2857 4.79917C10.4467 4.54272 10.8157 4.42134 11.1973 4.21578C11.5593 4.01707 11.819 3.87905 11.819 3.48458C11.819 3.19582 11.5886 3.21246 11.4666 3.06857C11.3642 2.94719 11.3895 2.13866 11.3895 1.76963C11.3895 1.40158 11.3105 1.35852 11.3105 1.03354C11.3105 0.704644 11.4539 0.0546875 12.143 0.0546875C12.4397 0.0546875 12.5373 0.333658 12.6641 0.615567C12.7988 0.920968 12.915 1.07171 12.915 1.63553C12.915 1.98498 12.4094 2.33149 12.4094 3.0206C12.4094 3.21441 12.587 3.63141 13.5903 3.63141C14.0071 3.63141 14.2393 4.13649 14.2784 4.32834C14.3164 4.52411 14.2881 4.73849 14.3262 4.99886C14.3662 5.26413 14.5409 5.46773 14.6102 5.69874C14.6756 5.92974 14.821 6.81169 14.861 6.97711C14.8991 7.14254 15.187 7.86787 15.2446 8.20949C15.3041 8.54817 15.4095 9.76194 15.5062 10.2944C15.6037 10.825 15.6535 10.8034 15.6896 11.0384C15.7375 11.3526 15.8634 11.3438 15.8634 11.564C15.8634 11.7862 15.4964 12.4548 15.2446 12.4548C15.0416 12.4548 14.9664 11.843 14.9664 11.6511C14.9664 11.1666 15.1333 11.0296 15.1333 10.362C15.1333 9.85885 14.9928 9.72279 14.7244 9.12961C14.4541 8.53936 14.3174 8.3064 14.2803 8.12237C14.2403 7.93737 13.9592 7.55953 13.8929 7.30797C13.7894 6.92328 13.6323 6.45343 13.6323 6.45343C13.6323 6.45343 13.2849 7.36572 13.2263 7.94814C13.2185 8.04504 13.0213 8.40526 13.0448 8.71262C13.0623 8.97201 13.3053 8.99649 13.4771 9.42914C13.6518 9.86668 13.603 10.0311 13.603 10.7016C13.603 11.3692 13.1785 12.2688 13.1785 12.2688C13.3737 12.5017 13.6518 13.6108 13.9026 14.0346C14.0481 14.2793 14.5077 14.5064 14.945 14.8843C15.5745 15.4314 15.6252 16.1685 16.0127 16.7597C20.4143 17.7993 23.5315 20.4148 23.5315 23.4795C23.5315 28.4678 18.2193 31.9564 11.7594 31.9564C5.30243 31.9544 0.0078125 28.9562 0.0078125 23.4835ZM12.6485 16.2909C13.2292 16.3193 13.8002 16.3731 14.3555 16.4475C14.3555 16.4475 14.0959 16.0599 13.8734 15.8553C13.6518 15.6566 13.2849 15.4667 13.0672 15.2758C12.8486 15.08 12.791 14.7727 12.6017 14.6758C12.5377 14.84 12.5007 15.0135 12.4924 15.1897C12.4924 15.3482 12.6485 16.2909 12.6485 16.2909Z" fill="#595959"/>
<path fill-rule="evenodd" clip-rule="evenodd" d="M12.5277 22.4575C12.7893 22.526 13.2236 22.6425 13.2236 22.6425L12.7209 22.7169L11.6201 26.5364L10.5172 22.7237L5.13281 22.0777L10.5172 21.4356L11.4356 19.0207C11.4356 19.0207 11.4541 19.4417 11.3888 19.7304C11.3204 20.0211 11.3175 20.1758 11.2258 20.3745C11.1575 20.6075 11.0491 20.9638 11.0491 20.9638C11.0491 20.9638 10.5836 21.4454 10.4391 21.5256C10.2947 21.602 9.93652 21.5452 9.93652 21.738C9.93652 21.7576 9.94628 21.8066 9.94628 21.8066L8.60335 21.8144V21.8849L9.9658 21.8623C10.0829 22.0473 10.5436 22.0385 10.5436 22.0385L10.5836 22.1364C10.5836 22.1364 10.4577 22.3508 10.4577 22.4457C10.4577 22.5436 10.5445 22.5926 10.6236 22.5926C10.7007 22.5926 10.9135 22.5426 10.9135 22.5426C11.3585 22.8813 12.1988 22.7785 12.5277 22.4575ZM12.6409 17.6641C13.7584 17.7345 14.8134 17.9509 15.7523 18.2661C15.7523 18.2661 15.8587 18.593 15.8743 18.7251C15.9768 18.9454 16.0002 19.3007 16.0002 19.3007L12.5384 20.7171L12.1227 19.5219C12.1227 19.5219 12.2798 18.8475 12.4243 18.4648C12.5667 18.0869 12.6409 17.6641 12.6409 17.6641Z" fill="#595959" stroke="white" stroke-width="0.2"/>
<path fill-rule="evenodd" clip-rule="evenodd" d="M15.7091 18.1759C14.7195 17.856 13.6939 17.6613 12.6562 17.5964C12.6562 17.5964 12.7782 17.1716 12.6709 16.4688C13.3101 16.5011 13.9309 16.5627 14.5321 16.6577C14.658 16.8202 15.4582 17.4985 15.7091 18.1759ZM16.7621 18.678C18.7531 19.6011 20.0365 21.0488 20.0365 22.6238C20.0365 22.8528 20.0072 23.0848 19.9467 23.3119C19.7174 23.2522 19.1572 22.9546 19.0849 22.658C19.0117 22.3556 19.0459 22.3448 19.0381 22.289C18.9821 22.031 18.9054 21.7779 18.8087 21.5323C18.6292 21.0811 17.945 20.6396 17.9011 20.4556C17.8581 20.2706 17.8962 20.0787 17.8962 19.9505C17.8962 19.8242 17.7566 19.7039 17.5244 19.7039C17.2921 19.7039 17.1799 19.8105 16.9817 19.8105C16.7826 19.8105 16.6382 19.7401 16.6382 19.7401C16.7368 19.513 16.6528 19.4777 16.6528 19.1283C16.6528 18.8317 16.7621 18.678 16.7621 18.678Z" fill="#595959" stroke="white" stroke-width="0.2"/>
<path fill-rule="evenodd" clip-rule="evenodd" d="M23.0444 22.8976C23.0803 23.2661 23.0669 23.6378 23.0044 24.0027L21.5297 23.6494L20.1263 23.3645C20.1799 23.1474 20.2075 22.9246 20.2083 22.7008C20.2083 21.0564 18.8614 19.5441 16.7875 18.5926C16.8256 18.484 17.092 18.248 17.092 17.9906C17.092 17.8222 16.7055 17.7058 16.4801 17.4855C16.3288 17.3426 16.1551 16.9922 16.1551 16.9922C19.6656 17.9113 22.2705 19.8866 22.9107 22.1938C22.9107 22.1938 22.2012 21.9608 21.9064 21.9628C21.7903 21.7425 21.7269 21.5517 21.7269 21.5517L21.6829 21.6682C21.2447 21.6877 20.623 21.676 20.623 21.676L20.5196 21.5781L20.626 21.8649L20.6699 21.7729L21.7181 21.7749L21.8293 21.859L21.8088 21.9471C21.7172 21.942 21.6254 21.953 21.5375 21.9794H20.746L20.6445 21.907L20.707 22.1693L20.7577 22.0773L21.3013 22.0891C21.2145 22.1595 21.3013 22.2819 21.3013 22.2819L20.7997 22.2878L20.7187 22.2075L20.7606 22.4747L20.8192 22.3866L21.3814 22.4023C21.7835 22.8438 23.0444 22.8976 23.0444 22.8976ZM15.8125 22.3798L17.2374 22.1693C17.2472 22.3837 17.3096 22.5648 17.2423 22.8692C16.4322 22.7654 15.8125 22.3798 15.8125 22.3798Z" fill="#595959" stroke="white" stroke-width="0.2"/>
<path fill-rule="evenodd" clip-rule="evenodd" d="M12.0195 21.0334C12.0195 21.0334 11.9688 20.7387 11.9688 20.4196C11.9688 20.1025 12.0868 19.7031 12.0868 19.7031L12.7076 21.4367L17.236 21.8957L17.239 22.0886L15.7028 22.3069C15.7028 22.3069 15.3095 22.0524 14.5629 21.978L16.8144 22.0064L16.8486 21.9163L12.9847 21.9085L12.7622 21.8625C12.7622 21.8625 12.6783 21.4151 12.0537 21.2663L12.0195 21.0334Z" fill="#595959" stroke="white" stroke-width="0.2" stroke-miterlimit="2.613"/>
<path fill-rule="evenodd" clip-rule="evenodd" d="M12.5781 20.8001L15.9559 19.4141L13.7913 21.4696L13.3462 21.4217L14.5164 20.667L14.4871 20.621L13.193 21.4119L12.8338 21.3757L15.4192 19.7664L15.3889 19.7165L12.746 21.3072L12.5781 20.8001Z" fill="#595959" stroke="white" stroke-width="0.2" stroke-miterlimit="2.613"/>
<path fill-rule="evenodd" clip-rule="evenodd" d="M12.0703 21.3942C12.4519 21.5322 12.5193 21.7749 12.5193 21.7749L12.0801 21.5459L12.0703 21.3942ZM13.911 21.4822L16.0054 19.4688C16.0298 19.5392 16.0483 19.5931 16.0249 19.6596C15.982 19.7839 15.6609 19.9043 15.6609 20.0893C15.6609 20.1833 15.738 20.1921 15.8122 20.1921C15.8854 20.1921 15.9956 20.1119 16.0786 20.1324C16.2435 20.1745 16.5754 20.2724 16.7188 20.4897C16.9638 20.8587 17.1658 21.4147 17.2234 21.8239C16.6525 21.7837 13.911 21.4822 13.911 21.4822ZM17.5172 26.3608C18.1125 26.0114 18.6298 25.6169 19.0494 25.1872C19.3081 25.3037 19.5989 25.612 20.3221 25.9615C20.8433 26.214 21.5538 26.4068 21.7519 26.5028C21.6065 26.6731 21.4493 26.8356 21.2805 26.9922C20.6608 26.7964 18.4853 27.0088 17.5172 26.3608Z" fill="#595959" stroke="white" stroke-width="0.2"/>
<path fill-rule="evenodd" clip-rule="evenodd" d="M11.4404 18.7957L10.725 20.6937L7.16862 19.3096L7.11104 19.3595L9.34405 21.5012L4.8468 22.0513V22.1394L9.26304 22.6709L6.37321 25.2884L6.43274 25.3491L10.6577 23.5441L11.5761 26.7811L11.6825 26.7753L12.5901 23.5078L16.8238 25.3314L16.8912 25.2512L14.2912 22.9147C14.2912 22.9147 15.6049 23.224 15.9172 23.3904C16.2246 23.5529 16.901 24.0198 17.2865 24.1842C17.6759 24.3506 17.7539 24.2929 17.8701 24.3389C17.9843 24.3869 18.887 25.0486 18.887 25.0486C18.4073 25.5207 17.8643 25.9237 17.2738 26.2457C17.2738 26.2457 16.8326 25.9785 16.4286 26.2095C16.0889 26.4043 16.3202 26.7106 16.3202 26.7106C14.9881 27.2666 13.4031 27.6034 11.74 27.6034C7.15691 27.6034 3.4375 25.6075 3.4375 22.621C3.4375 19.9233 7.00563 17.7287 11.458 17.6406C11.3936 18.1751 11.4404 18.7957 11.4404 18.7957Z" fill="#595959" stroke="white" stroke-width="0.2" stroke-miterlimit="2.613"/>
<path fill-rule="evenodd" clip-rule="evenodd" d="M11.1484 22.45C11.5659 22.2357 12.2727 22.4119 12.2727 22.4119C12.1095 22.5295 11.9125 22.5906 11.7115 22.5861C11.4857 22.589 11.3469 22.5646 11.1484 22.45Z" fill="#595959" stroke="white" stroke-width="0.2"/>
<path fill-rule="evenodd" clip-rule="evenodd" d="M6.38476 22.0625L10.233 22.1408V22.2083L6.375 22.1506L6.38476 22.0625Z" fill="#595959" stroke="white" stroke-width="0.2"/>
<path fill-rule="evenodd" clip-rule="evenodd" d="M9.3938 22.6873L9.85738 22.7431L8.50567 23.6182L8.60327 23.6476L10.0028 22.7656L10.3229 22.7852L7.0954 24.829L7.13346 24.8672L10.4566 22.84L10.6128 23.4498L6.60156 25.1883L9.3938 22.6873ZM9.4631 21.4921L7.28767 19.4297L10.6801 20.7658L10.5747 21.0487L9.37623 20.3263L9.30792 20.3469L10.5435 21.1348L10.4674 21.3189L7.75125 19.6989L7.69367 19.7165L10.3815 21.3756L9.4631 21.4921Z" fill="#595959" stroke="white" stroke-width="0.2" stroke-miterlimit="2.613"/>
<path fill-rule="evenodd" clip-rule="evenodd" d="M11.1973 22.8672L11.2745 22.876L11.2257 24.5547L11.1562 24.542L11.1973 22.8672ZM11.5942 22.9142L11.6812 22.924L11.6714 26.0328L11.5747 25.9966L11.5942 22.9142Z" fill="#595959" stroke="white" stroke-width="0.2" stroke-miterlimit="2.613"/>
<path fill-rule="evenodd" clip-rule="evenodd" d="M12.6172 23.4432L12.706 23.1505L14.1358 23.9766L14.1631 23.9071L12.7314 23.0722L12.7987 22.8402L16.0204 24.8096L16.1072 24.7979L12.8778 22.7854L13.3823 22.6953L14.0567 22.848L16.6196 25.118L12.6172 23.4432Z" fill="#595959" stroke="white" stroke-width="0.2" stroke-miterlimit="2.613"/>
<path fill-rule="evenodd" clip-rule="evenodd" d="M11.465 17.5592C6.91111 17.6473 3.26685 19.9124 3.26685 22.6982C3.26685 25.7728 7.0575 27.8333 11.7363 27.8333C13.4706 27.8333 15.1219 27.4681 16.5 26.874C16.7801 27.1207 17.4789 27.2371 17.6906 27.2792C17.9034 27.3174 18.5602 27.5602 18.5602 27.5602L18.8794 27.5964C19.1224 27.6669 19.5948 27.9253 19.9559 28.0114C17.9005 29.325 14.9911 30.1453 11.7695 30.1453C5.53304 30.1453 0.476562 27.3938 0.476562 23.2953C0.476562 19.56 5.40519 16.5197 11.5352 16.4453V16.7967L11.2912 17.0297L11.0785 16.8153L10.8179 16.8271L10.9721 16.8936L11.2063 17.0865L10.9819 17.2989L10.8579 17.3586H11.1283L11.0512 17.3087L11.2542 17.1246L11.4952 17.339L11.465 17.5592Z" fill="#595959" stroke="white" stroke-width="0.2"/>
<path fill-rule="evenodd" clip-rule="evenodd" d="M16.8281 27.2987L18.0286 27.9467L18.2403 27.9262L17.7289 28.1611L17.7777 28.0123L17.0233 27.5787C17.0526 27.8479 17.2341 28.2668 17.2341 28.2668L17.3991 28.2972L17.0223 28.4499L17.119 28.307L16.8281 27.2987ZM18.6659 19.281L18.8308 19.3172L19.5189 19.0744L19.5355 18.9766L19.7863 19.1528L19.6321 19.141L18.8894 19.3955L18.8786 19.4816L18.6659 19.281ZM18.9557 19.5326L19.1216 19.5688L19.8058 19.3299L19.8361 19.2007L20.0781 19.4063L19.9034 19.3857L19.1783 19.6461L19.1695 19.7332L18.9557 19.5326Z" fill="#595959" stroke="white" stroke-width="0.2"/>
<path fill-rule="evenodd" clip-rule="evenodd" d="M11.3516 17.057L11.5373 16.8828L11.507 17.2156L11.3516 17.057Z" fill="#595959" stroke="white" stroke-width="0.2"/>
<path fill-rule="evenodd" clip-rule="evenodd" d="M7.6671 17.3615L7.90133 17.2734L7.89157 17.342L8.25073 17.711L8.35516 17.7306L8.06725 17.8177L8.11409 17.7589L7.77543 17.3899L7.6671 17.3615ZM7.9394 17.847L7.63001 17.9518L7.66027 17.8754L7.37919 17.7991L7.29233 18.0213H7.38895L7.13813 18.128L7.23475 18.0213L7.3099 17.7854L6.8873 17.6503H6.73212L7.01223 17.5524V17.5945L7.32746 17.6904L7.39676 17.478L7.27281 17.4682L7.48459 17.3899L7.39676 17.6904L7.77543 17.8373L7.9394 17.847ZM3.7242 19.2027L3.92915 19.0589L3.89987 19.1753L4.06383 19.4142L4.6133 19.3975L4.81533 19.3496L4.57427 19.5825V19.4925L4.13215 19.5042L4.25512 19.7147L4.40054 19.6971L4.21706 19.8713V19.7431L4.07262 19.4925L3.53096 19.5042L3.29087 19.5708L3.54169 19.3398L3.58951 19.4357L3.99454 19.4142L3.8501 19.2027H3.7242ZM1.63758 21.9191L1.71468 21.6548L1.80155 21.7996L2.18022 21.9543L2.74823 21.7722L2.86535 21.6342L2.80777 21.9054L2.74042 21.8574L2.33442 22.014L2.67211 22.1667L2.77849 22.0904L2.68967 22.6444L2.61257 22.5543L1.56927 22.5641L1.45312 22.6826L1.58781 22.0708L1.68638 22.1305C1.82204 22.1168 2.08262 21.9797 2.08262 21.9797L1.76348 21.8368L1.63758 21.9191Z" fill="#595959" stroke="white" stroke-width="0.2"/>
<path fill-rule="evenodd" clip-rule="evenodd" d="M1.54688 22.3679L1.69254 22.2299L2.196 22.0547L2.65058 22.2299L2.69751 22.3562L2.60366 22.4423H1.58402L1.54688 22.3679Z" fill="#595959" stroke="white" stroke-width="0.2"/>
<path fill-rule="evenodd" clip-rule="evenodd" d="M1.6875 24.6681L1.90026 24.7063L2.82548 24.3656L2.91527 24.2031L3.04995 24.5017L2.92405 24.4557L1.90026 24.7924L1.82316 24.9568C1.76992 24.8646 1.72454 24.768 1.6875 24.6681ZM1.84561 25.0283L2.06227 25.0586L2.97675 24.6877L3.05678 24.5193L3.2022 24.8159L3.07532 24.7718L2.06422 25.1467L1.99883 25.2994C1.92661 25.1947 1.84561 25.0283 1.84561 25.0283ZM2.02616 25.3591L2.20964 25.367L3.19537 24.9578L3.21489 24.8237L3.37202 25.0949L3.24417 25.0528L2.24673 25.4698L2.1911 25.5902L2.02616 25.3591ZM2.20964 25.6283L2.39508 25.6469L3.70677 25.4923L2.76985 26.1902L2.77961 26.3145L2.55709 26.0737L2.70055 26.0855L3.35933 25.5902L2.36482 25.7164V25.7986L2.20964 25.6283ZM5.64114 26.9664L5.96809 27.1309L5.82267 27.1407L5.13851 27.8973L5.22538 28.0314L5.40105 28.0432L6.11351 27.3031L6.06568 27.1769L6.44338 27.3257L6.28918 27.3452L5.60405 28.0989L5.74654 28.237L5.9027 28.2487L7.11289 27.5684L6.7918 28.5375L6.89037 28.6657L6.41605 28.4993L6.58978 28.4787L6.89135 27.7426L5.9593 28.2761L6.06666 28.3809C5.6236 28.2448 5.19807 28.0569 4.79888 27.821L4.97651 27.7926L5.70262 27.0849L5.64114 26.9664ZM10.7162 28.2644L11.2285 28.2742L11.0831 28.3319L11.0743 29.2207L11.2578 29.2912L11.4218 29.2648L11.9644 28.2556H12.022L12.5529 29.2207L12.6886 29.2814L12.1176 29.301L12.2923 29.2031L11.9156 28.5296L11.5399 29.254L11.6921 29.3C11.2285 29.3401 10.6488 29.3098 10.6488 29.3098L10.8518 29.2432V28.3241L10.7162 28.2644Z" fill="#595959" stroke="white" stroke-width="0.2"/>
<path fill-rule="evenodd" clip-rule="evenodd" d="M10.8187 16.338L11.1505 16.3203L11.172 16.4084L10.8528 16.4221L10.8187 16.338ZM10.3746 16.3585L10.7074 16.3399L10.7445 16.4221L10.4292 16.4486L10.3746 16.3585ZM9.93248 16.4045L10.2653 16.3722L10.3287 16.4486L9.97151 16.4887L9.93248 16.4045ZM9.49036 16.4486L9.82219 16.4143L9.86416 16.4946L9.54892 16.5347L9.49036 16.4486ZM9.02971 16.5093L9.39667 16.4623L9.43961 16.5464L9.08339 16.5915L9.02971 16.5093ZM11.2549 16.3164L11.536 16.3125L11.5409 16.4006L11.2735 16.4045L11.2549 16.3164ZM8.5954 16.5846L8.9487 16.5249L8.98579 16.5993L8.65494 16.6531L8.5954 16.5846ZM8.16988 16.6629L8.50269 16.5993L8.55637 16.6757L8.2177 16.7432L8.16988 16.6629ZM7.72972 16.7559L8.07619 16.6796L8.11718 16.7637L7.78828 16.8293L7.72972 16.7559ZM7.30322 16.8656L7.6331 16.7755L7.69166 16.8499L7.36276 16.9302L7.30322 16.8656ZM6.88356 16.9683L7.20368 16.8822L7.26907 16.9556L6.94114 17.0486L6.88356 16.9683ZM6.40241 17.1181L6.74497 17.0026L6.81719 17.078L6.48244 17.1944L6.40241 17.1181ZM5.94468 17.2708L6.29896 17.1524L6.38094 17.2287L6.02568 17.3511L5.94468 17.2708ZM5.47817 17.448L5.8344 17.3051L5.90369 17.3814L5.55039 17.5155L5.47817 17.448ZM5.07607 17.6202L5.37667 17.4812L5.43913 17.5635L5.15219 17.6878L5.07607 17.6202ZM4.63201 17.819L4.95993 17.6643L5.03801 17.7406L4.71984 17.8865L4.63201 17.819ZM4.23088 18.0216L4.53538 17.8571L4.62225 17.9305L4.32458 18.0911L4.23088 18.0216ZM3.8405 18.2359L4.12353 18.0754L4.22503 18.139L3.9459 18.2976L3.8405 18.2359ZM3.42376 18.4728L3.71753 18.2957L3.84343 18.3563L3.53404 18.5443L3.42376 18.4728ZM3.06558 18.7273L3.34275 18.5247L3.45206 18.5952L3.17684 18.7772L3.06558 18.7273ZM2.7113 18.974L2.97872 18.7939L3.08998 18.8458L2.8333 19.0406L2.7113 18.974ZM2.36093 19.2549L2.62835 19.0406L2.74644 19.1042L2.48098 19.3234L2.36093 19.2549ZM2.04082 19.5319L2.28774 19.3234L2.41363 19.3773L2.19599 19.5838L2.04082 19.5319ZM1.74217 19.8364L1.97835 19.5975L2.10913 19.6455L1.89149 19.8843L1.74217 19.8364ZM1.45524 20.1437L1.68849 19.8971L1.83196 19.947L1.60944 20.1839L1.45524 20.1437ZM1.18782 20.4599L1.40156 20.2191L1.5665 20.2553L1.38302 20.4961L1.18782 20.4599ZM0.981893 20.7712L1.14683 20.5343L1.32934 20.5666L1.17025 20.7995L0.981893 20.7712ZM0.750589 21.1206L0.920407 20.8553L1.10779 20.8759L0.959446 21.1343L0.750589 21.1206ZM0.566132 21.4593L0.716431 21.2048L0.920407 21.2165L0.798412 21.473L0.566132 21.4593ZM0.411929 21.8322L0.537829 21.5493L0.750589 21.5611L0.650064 21.8322H0.411929ZM0.300669 22.167L0.392409 21.9164L0.629569 21.9184L0.547588 22.1768L0.300669 22.167ZM0.204048 22.5527L0.277245 22.2659L0.51831 22.2698L0.449991 22.5546L0.204048 22.5527ZM0.151346 22.9139L0.200145 22.6388L0.429496 22.6349L0.397289 22.9139H0.151346ZM0.122067 23.2868L0.141586 23.0059L0.391434 23L0.380698 23.2545L0.122067 23.2868ZM0.127923 23.6754L0.117188 23.3866L0.380698 23.3406L0.391434 23.6137L0.127923 23.6754ZM0.131827 23.7576L0.400218 23.6979L0.426568 24.0063L0.156226 24.0689L0.131827 23.7576ZM0.17477 24.157L0.434376 24.0865L0.501718 24.3675L0.22552 24.4438L0.17477 24.157ZM0.250895 24.5466L0.51831 24.4644L0.607122 24.757L0.339707 24.8412L0.250895 24.5466ZM0.359227 24.9156L0.615906 24.8412L0.72619 25.1241L0.465608 25.2318L0.359227 24.9156ZM0.494886 25.3062L0.74083 25.2083L0.892104 25.4971L0.639329 25.6057L0.494886 25.3062ZM0.677392 25.683L0.906744 25.5871L1.08339 25.8543L0.834522 25.9708L0.677392 25.683ZM0.882344 26.0589L1.12146 25.9385L1.31958 26.2087L1.07363 26.3535L0.882344 26.0589ZM1.12536 26.4093L1.35374 26.287L1.58992 26.5581L1.3391 26.7089L1.12536 26.4093ZM1.41034 26.7784L1.65531 26.6404L1.91589 26.9291L1.66409 27.0838L1.41034 26.7784ZM1.7451 27.1513L1.97835 27.0055L2.25455 27.258L2.01739 27.4224L1.7451 27.1513ZM2.11401 27.4929L2.33165 27.3363L2.63811 27.5869L2.43315 27.7699L2.11401 27.4929ZM2.50538 27.8257L2.69178 27.6593L3.0607 27.904L2.8577 28.0802L2.50538 27.8257ZM2.96798 28.1605L3.13292 27.9902L3.49793 28.2124L3.32616 28.3993L2.96798 28.1605ZM3.43254 28.4659L3.59846 28.2868L3.98006 28.4874L3.80439 28.6881L3.43254 28.4659ZM3.93517 28.7468L4.0718 28.5677L4.51099 28.7762L4.38118 28.9749L3.93517 28.7468ZM4.49049 29.015L4.61249 28.8271L5.05753 29.015L4.92187 29.2157L4.49049 29.015ZM5.04289 29.2617L5.16879 29.065L5.61871 29.2617L5.48695 29.4545L5.04289 29.2617ZM5.65287 29.4966L5.75729 29.2823L6.2404 29.4565L6.12133 29.6767L5.65287 29.4966ZM6.25504 29.709L6.34873 29.4927L6.86404 29.6415L6.75473 29.8774L6.25504 29.709ZM6.90015 29.8999L6.97823 29.6767L7.5033 29.7913L7.4096 30.0301L6.90015 29.8999ZM7.56088 30.0644L7.62725 29.8197L8.18452 29.9273L8.0879 30.1926L7.56088 30.0644ZM8.25382 30.2249L8.31042 29.9704L8.85013 30.0526L8.774 30.315L8.25382 30.2249ZM8.93797 30.3228L8.98286 30.0781L9.53233 30.1427L9.49036 30.405L8.93797 30.3228ZM9.67873 30.4128L9.69825 30.1681L10.2292 30.2132L10.2097 30.4598L9.67873 30.4128ZM10.4078 30.2366L10.9475 30.2543L10.9397 30.5019L10.3843 30.4833L10.4078 30.2366ZM11.1085 30.5078V30.2592L11.6804 30.269V30.5176L11.1085 30.5078ZM13.0058 16.4446L12.6759 16.426L12.6613 16.3399L13.0448 16.3507L13.0058 16.4446ZM13.4723 16.4828L13.1044 16.4486L13.1444 16.3585L13.5113 16.3947L13.4723 16.4828ZM13.9095 16.5288L13.5562 16.4887L13.6002 16.4084L13.971 16.4466L13.9095 16.5288ZM14.4541 16.5915L14.0198 16.5347L14.0637 16.4525L14.377 16.4887L14.4541 16.5915ZM16.1338 16.9282L16.0596 16.8195L16.2031 16.8636L16.1338 16.9282ZM16.569 17.0427L16.2372 16.9536L16.3065 16.8802L16.6257 16.9683L16.569 17.0427ZM17.0307 17.1866L16.6949 17.0721L16.7662 17.0026L17.1127 17.1161L17.0307 17.1866ZM17.4933 17.3432L17.1322 17.2267L17.2151 17.1465L17.5694 17.2669L17.4933 17.3432ZM17.9696 17.5155L17.6153 17.3755L17.6826 17.3031L18.0408 17.4431L17.9696 17.5155ZM18.3668 17.6819L18.0789 17.5576L18.1423 17.4734L18.4439 17.6163L18.3668 17.6819ZM18.804 17.8787L18.4829 17.7348L18.56 17.6565L18.8928 17.8121L18.804 17.8787ZM19.1993 18.0832L18.9026 17.9207L18.9894 17.8542L19.2959 18.0167L19.1993 18.0832ZM19.5828 18.2898L19.2988 18.1312L19.4042 18.0695L19.6882 18.2262L19.5828 18.2898ZM19.9937 18.5365L19.6843 18.3466L19.8112 18.2839L20.1069 18.464L19.9937 18.5365ZM20.3558 18.7675L20.0767 18.5844L20.1899 18.5169L20.4671 18.7156L20.3558 18.7675ZM20.7013 19.0278L20.4427 18.836L20.5559 18.7831L20.8233 18.9603L20.7013 19.0278ZM21.0546 19.3088L20.7881 19.0905L20.9062 19.0278L21.1766 19.2422L21.0546 19.3088ZM21.3396 19.5701L21.1239 19.3675L21.2468 19.3088L21.4977 19.5153L21.3396 19.5701ZM21.648 19.8687L21.4294 19.6298L21.5601 19.5838L21.7973 19.8168L21.648 19.8687ZM21.93 20.1692L21.7075 19.9342L21.8529 19.8824L22.0852 20.129L21.93 20.1692ZM22.1594 20.4785L21.9739 20.2416L22.1379 20.2034L22.3526 20.4462L22.1594 20.4785ZM22.3731 20.7829L22.2111 20.549L22.3965 20.5147L22.5625 20.7516L22.3731 20.7829ZM22.5869 21.1157L22.4356 20.8612L22.6239 20.8338L22.7947 21.102L22.5869 21.1157ZM22.7479 21.4534L22.6239 21.1979L22.8289 21.1862L22.9802 21.4387L22.7479 21.4534ZM22.8962 21.8097L22.7947 21.5376L23.0094 21.5278L23.1363 21.8097H22.8962ZM23.0319 22.1856L22.9255 21.8968L23.1636 21.8929L23.2759 22.2453L23.0319 22.1856ZM23.1734 23.2868L23.1783 22.9736L23.4076 23.0343L23.4291 23.3162L23.1734 23.2868ZM23.1734 23.65L23.1832 23.3827L23.432 23.4111L23.4242 23.6999L23.1734 23.65ZM23.393 24.0944L23.1207 24.0327L23.1636 23.7439L23.4193 23.7841L23.393 24.0944ZM19.7224 28.6362L19.5477 28.4356L19.9312 28.2349L20.0952 28.415L19.7224 28.6362ZM19.1446 28.9211L19.0138 28.7224L19.4559 28.5139L19.5945 28.694L19.1446 28.9211ZM18.5991 29.1599L18.4644 28.9632L18.9123 28.7762L19.0334 28.9632L18.5991 29.1599ZM18.033 29.3988L17.9012 29.204L18.3521 29.015L18.478 29.204L18.033 29.3988ZM17.4435 29.6405L17.3205 29.4222L17.8085 29.25L17.9149 29.4604L17.4435 29.6405ZM16.7769 29.8451L16.6647 29.6151L17.1859 29.4683L17.2776 29.6826L16.7769 29.8451ZM16.1035 30.0399L16.0352 29.7971L16.5525 29.6591L16.6305 29.8813L16.1035 30.0399ZM15.4174 30.2132L15.3169 29.9479L15.879 29.8431L15.9464 30.0839L15.4174 30.2132ZM14.7372 30.3326L14.6601 30.0742L15.2027 29.9919L15.2593 30.2366L14.7372 30.3326ZM14.0081 30.4216L13.9622 30.1642L14.5176 30.0986L14.5615 30.3375L14.0081 30.4216ZM13.2839 30.4814L13.2634 30.2366L13.7983 30.1848L13.8158 30.4295L13.2839 30.4814ZM13.1073 30.5L12.549 30.5176L12.5383 30.2729L13.0839 30.2543L13.1073 30.5ZM11.8063 30.5372V30.2885L12.3763 30.2768V30.5234L11.8063 30.5372ZM20.2084 28.3455L20.023 28.1703L20.1577 28.0705L20.3704 28.2085L20.2084 28.3455ZM21.8988 26.9252L22.1379 26.608L21.9183 26.5239L21.7397 26.7245L21.8988 26.9252ZM21.8422 26.9849L21.6714 26.7931L21.442 27.0172L21.7495 27.0936L21.8422 26.9849Z" fill="#595959" stroke="white" stroke-width="0.2"/>
</g>
<defs>
<clipPath id="clip0_1039_518">
<rect width="166" height="32" fill="white"/>
</clipPath>
</defs>
</svg>
