<svg width="59" height="32" viewBox="0 0 59 32" fill="none" xmlns="http://www.w3.org/2000/svg">
<path d="M39.4121 12.6019C39.0622 12.3445 38.5066 12.1797 37.9715 12.19C37.385 12.2003 36.8294 12.3857 36.4384 12.6946V9.00781H34.6172V21.0362H36.4384V14.7543C36.4384 14.3217 36.8088 13.8377 37.4879 13.8068C37.7863 13.7965 38.2082 13.9304 38.4243 14.2496C38.6506 14.5792 38.6404 15.0323 38.6404 15.5163L38.6301 21.0362H40.4513V15.4546C40.4513 13.8068 40.2455 13.2198 39.4121 12.6019Z" fill="#595959"/>
<path d="M24.6015 16.7291C24.6015 17.9031 24.5603 18.2326 24.5501 18.3356C24.4883 18.9947 24.2105 19.6847 23.4491 19.6847C22.698 19.6847 22.3893 18.9432 22.3584 18.3047C22.3481 18.3047 22.307 17.9031 22.307 16.7291C22.307 15.555 22.3481 15.0607 22.3584 15.0607C22.3584 14.3913 22.7082 13.7322 23.4491 13.7322C24.2002 13.7322 24.5398 14.3913 24.5501 15.0504C24.5501 15.0607 24.6015 15.555 24.6015 16.7291ZM26.361 15.3079C26.1038 12.7436 24.6427 12.1875 23.4491 12.1875C21.7513 12.1875 20.7224 13.2688 20.5372 15.3079C20.5166 15.4727 20.496 15.7713 20.4857 16.7291C20.4754 17.4293 20.5269 18.006 20.5372 18.1502C20.6504 20.0554 21.741 21.2191 23.4491 21.2191C25.1571 21.2191 26.2478 20.0348 26.3713 18.1502C26.3816 18.0163 26.4124 17.4293 26.4124 16.7291C26.4124 16.4098 26.3919 15.555 26.361 15.3079Z" fill="#595959"/>
<path d="M43.5013 15.6477C43.5116 15.2461 43.5116 15.1637 43.5219 15.0504C43.5733 14.3295 43.8923 13.7322 44.6331 13.7322C45.5077 13.722 45.7135 14.5767 45.7444 15.0504C45.765 15.3079 45.7753 15.4727 45.7753 15.6477H43.5013ZM45.7547 18.0575C45.7547 18.0575 45.7547 18.1914 45.7341 18.3562C45.6826 18.7784 45.518 19.6847 44.6331 19.6847C43.8717 19.6847 43.5836 18.9947 43.5322 18.315C43.5219 18.1193 43.491 17.9031 43.491 17.1616H47.5553C47.5553 17.1616 47.5553 16.554 47.545 16.1935C47.545 16.0494 47.5348 15.8125 47.5039 15.3079C47.4421 14.5355 47.154 13.6911 46.7116 13.1555C46.2074 12.517 45.4871 12.1875 44.6331 12.1875C42.9868 12.1875 41.9579 13.2585 41.7624 15.3079C41.7418 15.4933 41.7109 15.7507 41.7109 16.7291C41.7109 17.4293 41.7521 18.0163 41.7624 18.1502C41.8653 20.0245 42.9765 21.2191 44.6331 21.2191C46.2794 21.2191 47.3804 20.0554 47.5039 18.0575H45.7547Z" fill="#595959"/>
<path d="M14.7207 2.8711H44.3337L55.652 16.1353L44.3337 29.2141H14.7207L3.35095 16.0941L14.7207 2.8711ZM45.0436 1.39844H14.0005L1.40625 16.0426L14.0108 30.5941H45.0436L57.5967 16.0941L45.0436 1.39844Z" fill="#595959"/>
<path d="M15.0897 10.6463H15.9437C16.8801 10.6463 17.3945 11.1406 17.4151 12.0263C17.4151 12.0984 17.4254 12.1705 17.4254 12.3043C17.4254 12.4691 17.4254 12.5206 17.4151 12.5927C17.3637 13.1179 17.127 14.0344 16.0363 14.0344H15.0897V10.6463ZM19.401 20.2855L19.2158 17.3402C19.1335 16.022 18.7939 15.2393 18.1045 14.8377C18.5984 14.5391 19.2363 13.8079 19.226 12.2734C19.226 9.94602 17.7752 9.12215 16.0672 9.10156H13.2891V21.0373H15.0794L15.0897 15.5792H16.0878C16.664 15.5792 17.3122 16.0838 17.4151 17.505L17.6003 20.2958C17.6209 20.6974 17.6929 21.0373 17.6929 21.0373H19.4936C19.4936 21.0373 19.4113 20.7077 19.401 20.2855Z" fill="#595959"/>
<path d="M31.68 17.9751C31.68 18.109 31.6697 18.2223 31.6594 18.3047C31.608 18.9741 31.3816 19.6847 30.5585 19.6847C29.8073 19.6847 29.5089 18.9123 29.4472 18.3459C29.4163 18.006 29.4266 17.7383 29.4163 16.7291C29.406 15.555 29.4472 15.2461 29.4678 15.0607C29.5295 14.309 29.8176 13.7322 30.5585 13.7322C31.3302 13.722 31.6491 14.3913 31.6594 15.0504C31.6594 15.0607 31.68 15.2152 31.6903 15.5654H33.4909C33.4909 15.4418 33.4806 15.3388 33.4806 15.2873C33.2749 12.7951 31.752 12.1875 30.5585 12.1875C28.8607 12.1875 27.8318 13.2688 27.6465 15.3079C27.626 15.4727 27.6054 15.7713 27.5951 16.7291C27.5848 17.4293 27.6363 18.006 27.6465 18.1502C27.7597 20.0554 28.8504 21.2191 30.5585 21.2191C32.3282 21.2294 33.3057 20.1481 33.4806 18.1502C33.4806 18.0781 33.4909 18.0266 33.4909 17.9751H31.68Z" fill="#595959"/>
</svg>
